<svg id="a45cc78b-43fb-4825-b283-140148b405df" data-name="Layer 1" xmlns="http://www.w3.org/2000/svg" viewBox="0 0 96 108"><defs><style>{fill:currentColor;}</style></defs><path class="fa3fa38b-dd14-48d7-9e09-433f027302e4" d="M6.23,107.87c13.51-.75,44.89-3.66,52.73-14.6a9.31,9.31,0,0,0,1.21-8.86c-2.69-7.94-11.55-9-19-9-4.18,0-8.71.38-13.09.75s-8.53.72-12.35.72C4.81,76.92.13,73.81.13,66.53.13,52,21.25,46.84,39.88,42.25c15.71-3.86,30.54-7.51,30.5-16.14C69.88,5.86,21,1.13,5,.13H95.87V107.88Z"/><path class="fa3fa38b-dd14-48d7-9e09-433f027302e4" d="M8.75.26h87V107.75H10.15c14.9-1.07,41.73-4.38,48.91-14.41a9.42,9.42,0,0,0,1.23-9c-2.72-8-11.62-9-19.08-9-4.18,0-8.72.38-13.1.75s-8.52.71-12.34.71c-5.11,0-8.65-.64-11.14-2C1.69,73.14.25,70.44.25,66.53.25,52.13,21.32,47,39.91,42.37,55.67,38.5,70.54,34.83,70.5,26.11,70.25,15.92,58.29,8.38,35,3.72A225.37,225.37,0,0,0,8.75.26M0,0s69.66,1.85,70.26,26.1C70.34,44.83,0,39.73,0,66.53,0,75.07,6.76,77,15.77,77c7.77,0,17.21-1.46,25.44-1.46,8.92,0,16.41,1.72,18.84,8.87C67.43,106.21,3.88,108,0,108H96V0Z"/></svg>